<svg width="64" height="64" viewBox="0 0 64 64" fill="none" xmlns="http://www.w3.org/2000/svg">
<rect x="0.5" y="0.5" width="63" height="63" rx="31.5" stroke="#212121"/>
<g clip-path="url(#clip0_47_112)">
<path d="M39.7744 23.1949C39.774 23.1949 39.7736 23.1948 39.7731 23.1948L32.8622 23.2254C32.3445 23.2277 31.9265 23.6492 31.9288 24.1671C31.9311 24.6848 32.3526 25.1027 32.8704 25.1004L37.5103 25.0799L23.4994 39.1471C23.134 39.5139 23.1352 40.1075 23.5021 40.4729C23.8689 40.8383 24.4625 40.8371 24.8279 40.4702L38.8388 26.4031L38.8369 31.043C38.8367 31.5608 39.2563 31.9807 39.774 31.9808C40.2919 31.9811 40.7117 31.5614 40.7119 31.0437L40.7148 24.1327C40.7148 24.1323 40.7147 24.1319 40.7148 24.1314C40.7142 23.6127 40.2915 23.1933 39.7744 23.1949Z" fill="#212121"/>
</g>
<defs>
<clipPath id="clip0_47_112">
<rect width="24" height="24" fill="white" transform="translate(15 32.0049) rotate(-45.1148)"/>
</clipPath>
</defs>
</svg>
