<svg width="102" height="37" viewBox="0 0 102 37" fill="none" xmlns="http://www.w3.org/2000/svg">
<g clip-path="url(#clip0_465_374)">
<path d="M0.607422 14V0.729187H4.35352C5.50803 0.729187 6.52886 0.984391 7.41602 1.49482C8.30318 2.00522 8.98677 2.73136 9.46682 3.6732C9.95293 4.61503 10.199 5.69664 10.2051 6.91799V7.76565C10.2051 9.01742 9.96203 10.1142 9.47592 11.056C8.99587 11.9979 8.30622 12.721 7.4069 13.2253C6.51367 13.7296 5.47157 13.9879 4.2806 14H0.607422ZM2.35742 2.16929V12.5691H4.19857C5.54752 12.5691 6.5957 12.1498 7.3431 11.3112C8.09661 10.4726 8.47328 9.27868 8.47328 7.72919V6.95445C8.47328 5.44751 8.11784 4.2778 7.4069 3.44533C6.70204 2.60679 5.69943 2.18145 4.39909 2.16929H2.35742ZM17.7246 8.63157H14.6074V14H12.8483V0.729187H17.2416C18.7363 0.729187 19.8848 1.06946 20.6869 1.75002C21.495 2.43058 21.8991 3.42103 21.8991 4.72137C21.8991 5.54776 21.6743 6.26781 21.2246 6.88153C20.7811 7.49525 20.1613 7.95404 19.3652 8.25784L22.4824 13.8907V14H20.6048L17.7246 8.63157ZM14.6074 7.20054H17.2962C18.1652 7.20054 18.8548 6.97572 19.3652 6.52606C19.8817 6.07641 20.14 5.47484 20.14 4.72137C20.14 3.90106 19.8939 3.27215 19.4017 2.83465C18.9156 2.39715 18.2108 2.17537 17.2871 2.16929H14.6074V7.20054ZM31.8613 7.86592H26.11V12.5691H32.791V14H24.36V0.729187H32.6999V2.16929H26.11V6.43492H31.8613V7.86592ZM42.2975 10.5365H36.7377L35.4889 14H33.6843L38.7519 0.729187H40.2832L45.36 14H43.5644L42.2975 10.5365ZM37.2663 9.09636H41.778L39.5176 2.88934L37.2663 9.09636ZM49.4069 0.729187L53.7455 11.5573L58.084 0.729187H60.3536V14H58.6036V8.83208L58.7676 3.25392L54.4108 14H53.071L48.7233 3.28127L48.8965 8.83208V14H47.1465V0.729187H49.4069ZM66.8157 7.82944L65.1934 9.51567V14H63.4434V0.729187H65.1934V7.29169L71.0905 0.729187H73.2051L67.9824 6.58987L73.6152 14H71.5189L66.8157 7.82944ZM82.4746 10.5365H76.9147L75.6661 14H73.8613L78.9287 0.729187H80.4601L85.5375 14H83.7416L82.4746 10.5365ZM77.4434 9.09636H81.955L79.6948 2.88934L77.4434 9.09636ZM89.5842 0.729187L93.9227 11.5573L98.2611 0.729187H100.531V14H98.7807V8.83208L98.9448 3.25392L94.5877 14H93.2483L88.9006 3.28127L89.0732 8.83208V14H87.3232V0.729187H89.5842Z" fill="#275553"/>
<path d="M11.0404 24.178H6.77479V36.0087H5.03389V24.178H0.777344V22.7379H11.0404V24.178ZM22.9623 29.8016C22.9623 31.102 22.7435 32.2383 22.306 33.2105C21.8685 34.1766 21.2488 34.915 20.4466 35.4254C19.6446 35.9357 18.7088 36.191 17.6393 36.191C16.5942 36.191 15.6676 35.9357 14.8594 35.4254C14.0513 34.9088 13.4224 34.1766 12.9727 33.2288C12.5291 32.2747 12.3013 31.1718 12.2891 29.9202V28.9631C12.2891 27.6871 12.5109 26.5599 12.9545 25.5816C13.398 24.6033 14.0239 23.8559 14.8321 23.3394C15.6463 22.8169 16.576 22.5555 17.6211 22.5555C18.6845 22.5555 19.6203 22.8138 20.4284 23.3303C21.2426 23.8407 21.8685 24.5851 22.306 25.5634C22.7435 26.5356 22.9623 27.6688 22.9623 28.9631V29.8016ZM21.2214 28.9449C21.2214 27.3711 20.9054 26.165 20.2735 25.3264C19.6415 24.4818 18.7574 24.0595 17.6211 24.0595C16.5152 24.0595 15.6432 24.4818 15.0052 25.3264C14.3733 26.165 14.0482 27.3316 14.03 28.8264V29.8016C14.03 31.3269 14.349 32.5269 14.987 33.4019C15.6311 34.2708 16.5152 34.7053 17.6393 34.7053C18.7696 34.7053 19.6446 34.2952 20.2643 33.4748C20.8841 32.6485 21.2032 31.4666 21.2214 29.9293V28.9449ZM34.9297 22.7379V31.7613C34.9237 33.013 34.5287 34.0369 33.7449 34.8329C32.9671 35.6289 31.9098 36.0755 30.5729 36.1727L30.1081 36.191C28.6559 36.191 27.4983 35.7991 26.6354 35.0152C25.7726 34.2313 25.3351 33.1528 25.3229 31.7795V22.7379H27.0547V31.7248C27.0547 32.6849 27.319 33.4323 27.8477 33.967C28.3763 34.4957 29.1298 34.76 30.1081 34.76C31.0985 34.76 31.8551 34.4957 32.3776 33.967C32.9062 33.4384 33.1706 32.694 33.1706 31.7339V22.7379H34.9297ZM42.5586 30.6402H39.4415V36.0087H37.6824V22.7379H42.0756C43.5704 22.7379 44.7188 23.0781 45.5209 23.7587C46.3291 24.4392 46.7331 25.4297 46.7331 26.73C46.7331 27.5564 46.5083 28.2765 46.0586 28.8902C45.6151 29.5039 44.9953 29.9627 44.1993 30.2665L47.3165 35.8993V36.0087H45.4388L42.5586 30.6402ZM39.4415 29.2092H42.1302C42.9992 29.2092 43.6888 28.9844 44.1993 28.5347C44.7157 28.0851 44.974 27.4835 44.974 26.73C44.974 25.9097 44.7279 25.2808 44.2357 24.8433C43.7496 24.4058 43.0447 24.1841 42.1211 24.178H39.4415V29.2092Z" fill="#275553"/>
</g>
<defs>
<clipPath id="clip0_465_374">
<rect width="101.111" height="36.5556" fill="white"/>
</clipPath>
</defs>
</svg>
