<svg width="50" height="37" viewBox="0 0 50 37" fill="none" xmlns="http://www.w3.org/2000/svg">
<path fill-rule="evenodd" clip-rule="evenodd" d="M0.609375 31.6992V2.01087C0.609375 0.900298 1.51936 0 2.6419 0H17.6459C19.1568 0 20.1395 1.57313 19.4638 2.91016L4.45983 32.5985C3.50067 34.4964 0.609375 33.8211 0.609375 31.6992ZM50.6094 31.6992V2.01087C50.6094 0.900298 49.6992 0 48.5769 0H33.5729C32.0619 0 31.0792 1.57313 31.7549 2.91016L46.759 32.5985C47.7179 34.4964 50.6094 33.8211 50.6094 31.6992ZM26.6256 34.9891V5.30077C26.6256 3.17887 29.5169 2.50359 30.4761 4.40151L45.4801 34.0898C46.1557 35.4269 45.1732 37 43.6622 37H28.6582C27.5356 37 26.6256 36.0997 26.6256 34.9891ZM24.5931 5.30077V34.9891C24.5931 36.0997 23.6831 37 22.5606 37H7.55661C6.04568 37 5.06295 35.4269 5.73864 34.0898L20.7427 4.40151C21.7018 2.50359 24.5931 3.17887 24.5931 5.30077Z" fill="url(#paint0_linear_2_1)"/>
<defs>
<linearGradient id="paint0_linear_2_1" x1="25.8126" y1="37" x2="25.8126" y2="-4.41074e-06" gradientUnits="userSpaceOnUse">
<stop offset="0.479167" stop-color="#275553"/>
<stop offset="1" stop-color="#F47648"/>
</linearGradient>
</defs>
</svg>
